<svg xmlns="http://www.w3.org/2000/svg" version="1.1" xmlns:xlink="http://www.w3.org/1999/xlink" xmlns:svgjs="http://svgjs.dev/svgjs" width="1500" height="1500" viewBox="0 0 1500 1500"><rect width="1500" height="1500" fill="#010536"></rect><g transform="matrix(0.6666666666666666,0,0,0.6666666666666666,249.39393939393938,641.510401975716)"><svg viewBox="0 0 396 86" data-background-color="#010536" preserveAspectRatio="xMidYMid meet" height="325" width="1500" xmlns="http://www.w3.org/2000/svg" xmlns:xlink="http://www.w3.org/1999/xlink"><g id="tight-bounds" transform="matrix(1,0,0,1,0.2400000000000091,0.06202506194654234)"><svg viewBox="0 0 395.52 85.87594987610692" height="85.87594987610692" width="395.52"><g><svg viewBox="0 0 399.9955333333334 86.84768499999998" height="85.87594987610692" width="395.52"><g><svg viewBox="0 0 399.9955333333334 86.84768499999998" height="86.84768499999998" width="399.9955333333334"><g id="textblocktransform"><svg viewBox="0 0 399.9955333333334 86.84768499999998" height="86.84768499999998" width="399.9955333333334" id="textblock"><g><svg viewBox="0 0 399.9955333333334 62.29299999999999" height="62.29299999999999" width="399.9955333333334"><g><svg><g></g><g></g></svg></g><g><svg><g><svg></svg></g><g></g></svg></g><g id="text-0"><svg viewBox="0 0 399.9955333333334 62.29299999999999" height="62.29299999999999" width="399.9955333333334"><g transform="matrix(1,0,0,1,0,8.546499999999995)"><svg width="70.15000000000002" viewBox="4 -28.75 70.15 28.75" height="28.75" data-palette-color="#fbfbf8"><path d="M4-3.4L4-25.3 9.85-28.75 20.2-28.75 20.2-23.1 10.5-23.1 10.5-5.85 20-5.85 20 0 9.85 0 4-3.4ZM38.65-9.3L32.15-9.3 32.15-5.85 22.65-5.85 22.65 0 32.8 0 38.65-3.4 38.65-9.3ZM32.15-19.6L38.65-19.6 38.65-25.3 32.8-28.75 22.45-28.75 22.45-23.1 32.15-23.1 32.15-19.6ZM43.15-20.05L49.45-21.85 57.7-9.3 57.7 0 55.75 0 43.15-20.05ZM74.15-20.05L68.1-21.85 60.2-9.3 60.2 0 62 0 74.15-20.05Z" opacity="1" transform="matrix(1,0,0,1,0,0)" fill="#fbfbf8" class="undefined-yy-0"></path></svg></g><g><svg xmlns="http://www.w3.org/2000/svg" xmlns:xlink="http://www.w3.org/1999/xlink" version="1.1" x="84.85700000000003" y="0" viewBox="10 2 44 60" style="enable-background:new 0 0 64 64;" xml:space="preserve" height="62.29299999999999" width="45.68153333333333" class="icon-cg-0" data-fill-palette-color="accent" id="cg-0"><path d="M53.706 11.292l-8.998-8.998C44.527 2.112 44.277 2 44 2H15c-2.757 0-5 2.243-5 5v43c0 2.757 2.243 5 5 5h11v7h2v-7h15c0.552 0 1-0.447 1-1v-5c0-1.86 1.277-3.429 3-3.873V54v8h2v-7c2.757 0 5-2.243 5-5V12C54 11.723 53.888 11.473 53.706 11.292zM45 5.414L50.586 11H45V5.414zM52 50c0 1.654-1.346 3-3 3v-9c0-0.553-0.448-1-1-1-3.309 0-6 2.691-6 6v4H15c-1.654 0-3-1.346-3-3V7c0-1.654 1.346-3 3-3h28v8c0 0.553 0.448 1 1 1h8V50z" fill="#ffff00" data-fill-palette-color="accent"></path><path d="M20 24h6 4c0.552 0 1-0.447 1-1V9c0-0.553-0.448-1-1-1H16c-0.552 0-1 0.447-1 1v14c0 0.553 0.448 1 1 1H20zM22 15c0-0.552 0.449-1 1-1s1 0.448 1 1-0.449 1-1 1S22 15.552 22 15zM21 22v-2c0-1.103 0.897-2 2-2s2 0.897 2 2v2H21zM17 10h12v12h-2v-2c0-1.311-0.642-2.465-1.619-3.195C25.764 16.301 26 15.68 26 15c0-1.654-1.346-3-3-3s-3 1.346-3 3c0 0.68 0.236 1.301 0.619 1.805C19.642 17.535 19 18.689 19 20v2h-2V10z" fill="#ffff00" data-fill-palette-color="accent"></path><rect x="33" y="11" width="5" height="2" fill="#ffff00" data-fill-palette-color="accent"></rect><rect x="33" y="15" width="6" height="2" fill="#ffff00" data-fill-palette-color="accent"></rect><rect x="41" y="15" width="5" height="2" fill="#ffff00" data-fill-palette-color="accent"></rect><rect x="33" y="19" width="13" height="2" fill="#ffff00" data-fill-palette-color="accent"></rect><rect x="20" y="27" width="8" height="2" fill="#ffff00" data-fill-palette-color="accent"></rect><rect x="30" y="27" width="6" height="2" fill="#ffff00" data-fill-palette-color="accent"></rect><rect x="38" y="27" width="10" height="2" fill="#ffff00" data-fill-palette-color="accent"></rect><rect x="16" y="31" width="8" height="2" fill="#ffff00" data-fill-palette-color="accent"></rect><rect x="26" y="31" width="16" height="2" fill="#ffff00" data-fill-palette-color="accent"></rect><rect x="44" y="31" width="4" height="2" fill="#ffff00" data-fill-palette-color="accent"></rect><rect x="16" y="35" width="4" height="2" fill="#ffff00" data-fill-palette-color="accent"></rect><rect x="22" y="35" width="12" height="2" fill="#ffff00" data-fill-palette-color="accent"></rect><rect x="36" y="35" width="12" height="2" fill="#ffff00" data-fill-palette-color="accent"></rect><rect x="16" y="39" width="4" height="2" fill="#ffff00" data-fill-palette-color="accent"></rect><rect x="22" y="39" width="12" height="2" fill="#ffff00" data-fill-palette-color="accent"></rect><rect x="36" y="39" width="12" height="2" fill="#ffff00" data-fill-palette-color="accent"></rect><rect x="16" y="43" width="9" height="2" fill="#ffff00" data-fill-palette-color="accent"></rect><rect x="27" y="43" width="14" height="2" fill="#ffff00" data-fill-palette-color="accent"></rect><rect x="16" y="47" width="4" height="2" fill="#ffff00" data-fill-palette-color="accent"></rect><rect x="22" y="47" width="17" height="2" fill="#ffff00" data-fill-palette-color="accent"></rect></svg></g><g transform="matrix(1,0,0,1,145.24553333333336,15.246499999999997)"><svg width="254.75000000000006" viewBox="5 -22.05 254.74 31.8" height="31.799999999999997" data-palette-color="#fbfbf8"><path d="M5-0.05L5-22 11.25-22 11.25-19.85 18.95-22 18.95-17.3 11.25-17.3 11.25-0.05 5-0.05ZM41.75-18.55L36.05-22 33.9-22 27.5-19.25 20.95-22 20.95-17.3 20.95-0.05 27.5-0.05 27.5-17.3 35.5-17.3 35.5-0.05 41.75-0.05 41.75-18.55ZM50.25-3.4L50.25-9.75 55.95-13.2 64.15-13.2 64.15-9.35 56.6-9.35 56.6-5.25 64.15-5.25 64.15 0.05 55.95 0.05 50.25-3.4ZM56.6-15.05L50.25-15.05 50.25-18.5 55.95-22 64.15-22 64.15-17.3 56.6-17.3 56.6-15.05ZM80.25 0.05L80.25-18.5 74.55-22 66.35-22 66.35-17.3 73.9-17.3 73.9-13.2 66.35-13.2 66.35-9.35 73.9-9.35 73.9-5.25 66.55-5.25 66.55 0.05 80.25 0.05ZM89.75-0.05L89.75-22 96.09-22 96.09-19.85 103.5-22 103.5-17.3 96.09-17.3 96.09-0.05 89.75-0.05ZM119.7-0.05L119.7-18.55 113.8-22 105.9-22 105.9-17.3 113.45-17.3 113.45-0.05 119.7-0.05ZM128.19-3.4L128.19-9.75 133.89-13.2 142.09-13.2 142.09-9.35 134.54-9.35 134.54-5.25 142.09-5.25 142.09 0.05 133.89 0.05 128.19-3.4ZM134.54-15.05L128.19-15.05 128.19-18.5 133.89-22 142.09-22 142.09-17.3 134.54-17.3 134.54-15.05ZM158.19 0.05L158.19-18.5 152.49-22 144.29-22 144.29-17.3 151.84-17.3 151.84-13.2 144.29-13.2 144.29-9.35 151.84-9.35 151.84-5.25 144.49-5.25 144.49 0.05 158.19 0.05ZM169.54 2.25L163.09 2.25 163.09 6.3 168.94 9.75 176.84 9.75 176.84 4.5 169.54 4.5 169.54 2.25ZM163.09-6.3L163.09-18.55 168.94-22 176.84-22 176.84-17.2 169.44-17.2 169.44-6.85 176.84-6.85 176.84-2.8 168.94-2.8 163.09-6.3ZM193.14 6.3L193.14-22 179.34-22 179.34-17.2 186.79-17.2 186.79-6.85 179.34-6.85 179.34-2.8 186.79-2.8 186.79 4.5 179.34 4.5 179.34 9.75 187.29 9.75 193.14 6.3ZM228.24-18.55L228.24-12.85 222.34-9.4 214.34-9.4 214.34-13.25 221.89-13.25 221.89-17.35 214.34-17.35 214.34-22.05 222.34-22.05 228.24-18.55ZM221.69-6.95L228.24-6.95 228.24-3.45 222.34 0 214.34 0 214.34-5.3 221.69-5.3 221.69-6.95ZM198.04-18.55L198.04-3.45 203.94 0 211.89 0 211.89-5.3 204.34-5.3 204.34-9.4 211.89-9.4 211.89-13.25 204.34-13.25 204.34-17.35 211.89-17.35 211.89-22.05 203.94-22.05 198.04-18.55ZM237.24 0L237.24-21.85 243.49-21.85 243.49-19.7 250.99-21.85 250.99-17.2 243.49-17.2 243.49 0 237.24 0ZM259.74-15.05L259.74-19.1 253.24-21.85 253.24-15.05 259.74-15.05Z" opacity="1" transform="matrix(1,0,0,1,0,0)" fill="#fbfbf8" class="undefined-yy-1"></path></svg></g></svg></g></svg></g><g transform="matrix(1,0,0,1,109.66591401766009,69.08018499999999)"><svg viewBox="0 0 180.66370529801324 17.7675" height="17.7675" width="180.66370529801324"><g transform="matrix(1,0,0,1,0,0)"><svg width="180.66370529801324" viewBox="2.75 -36.75 383.82 37.75" height="17.7675" data-palette-color="#fbfbf8"><path d="M24.4-8.6L24.4-8.6Q24.4-4.4 21.25-1.7 18.1 1 13.35 1L13.35 1Q10.65 1 7.5 0.08 4.35-0.85 2.8-2.45L2.8-2.45 2.75-4.2Q2.75-7.9 3.3-10.9L3.3-10.9 6-10.9 6.7-4.9Q10.15-2.3 15.05-2.3L15.05-2.3 16.75-2.4Q19.65-3.95 19.65-7.5L19.65-7.5Q19.65-10.55 16.15-12.55L16.15-12.55 8.05-16.75Q3-19.75 3-24.45L3-24.45Q3-28.45 6.3-30.98 9.6-33.5 14.65-33.5L14.65-33.5Q18.15-33.5 22.9-31.95L22.9-31.95 22.95-30.2Q22.95-26.55 22.4-23.5L22.4-23.5 19.7-23.5 19.2-28.05Q16.35-30.25 12.35-30.25L12.35-30.25 10.05-30.05Q7.65-28.6 7.65-25.5L7.65-25.5Q7.65-22.65 11.1-20.75L11.1-20.75 19.1-16.7Q24.4-13.65 24.4-8.6ZM49.5-3.75L50.25-1.55 45.2 0.75Q44.45 0.65 43.3-0.43 42.15-1.5 41.65-2.7L41.65-2.7 36 0.7 34.8 0.75Q31.8 0.75 29.97-0.95 28.15-2.65 28.15-5.2L28.15-5.2Q28.15-8.6 31.65-10.55L31.65-10.55 41.4-10.8 41.4-15.95Q41.4-18.25 40.85-19.43 40.3-20.6 38.95-21.3L38.95-21.3Q35.9-21.2 33.3-20.45L33.3-20.45 32.9-15.25 30.25-15.05Q28.95-17.4 28.8-21.05L28.8-21.05Q31-22.3 34.7-23.48 38.4-24.65 39.95-24.65L39.95-24.65Q41.35-24.65 42.85-23.63 44.35-22.6 45.1-21.48 45.85-20.35 45.9-17.4L45.9-17.4 45.9-4.3Q45.9-3.3 47.2-3.3L47.2-3.3Q47.95-3.3 49.5-3.75L49.5-3.75ZM34.15-2.9L34.15-2.9Q37.1-2.8 41.4-4.75L41.4-4.75 41.4-8.2 38.9-8.35Q32.85-8.35 32.85-5.2L32.85-5.2Q32.85-3.7 34.15-2.9ZM60.55-35L60.55-3.2Q63.05-2.9 64.15-2.4L64.15-2.4 63.85 0 52.55 0 52.3-1.65Q53.5-2.25 56.1-3.05L56.1-3.05 56.1-33.15 52.35-32.85 51.75-35.2Q55.1-36.65 58.55-36.75L58.55-36.75 60.55-35ZM72.44-28.65L72.44-28.65Q69.99-29.7 68.59-31.65L68.59-31.65Q69.89-34.35 71.64-35.45L71.64-35.45Q73.89-34.55 75.39-32.45L75.39-32.45Q74.59-30.15 72.44-28.65ZM74.44-22.45L74.44-3.2Q76.94-2.9 78.04-2.4L78.04-2.4 77.74 0 66.44 0 66.19-1.65Q67.39-2.25 69.99-3.05L69.99-3.05 69.99-20.6 66.24-20.3 65.64-22.65Q68.99-24.1 72.44-24.2L72.44-24.2 74.44-22.45ZM118.44-15.35L118.44-3.2Q120.99-2.85 121.94-2.4L121.94-2.4 121.64 0 111.39 0 111.14-1.65 113.99-2.75 113.99-14.8Q113.99-20.2 110.79-20.2L110.79-20.2Q108.24-20.2 103.49-16.8L103.49-16.8 103.49-3.2Q106.04-2.85 106.99-2.4L106.99-2.4 106.69 0 96.44 0 96.19-1.65 99.04-2.75 99.04-14.8Q99.04-20.2 95.84-20.2L95.84-20.2Q93.24-20.2 88.59-16.85L88.59-16.85 88.59-3.15Q90.69-2.9 91.84-2.4L91.84-2.4 91.54 0 80.84 0 80.59-1.65 84.14-2.95 84.14-20.6 80.39-20.3 79.79-22.65Q83.14-24.1 86.59-24.2L86.59-24.2 88.59-22.45 88.59-19.5Q95.64-24.2 98.24-24.2L98.24-24.2Q99.59-23.95 100.89-22.95 102.19-21.95 102.79-20.85L102.79-20.85 103.24-19.35Q110.79-24.2 113.19-24.2L113.19-24.2Q114.64-23.95 116.12-22.73 117.59-21.5 118.02-20.2 118.44-18.9 118.44-15.35L118.44-15.35ZM156.49-17.35L156.49-17.35Q160.69-16.85 163.04-14.48 165.39-12.1 165.39-8.95L165.39-8.95Q165.39-5.1 161.96-2.63 158.54-0.15 152.89 0L152.89 0 137.99 0 137.69-1.6 141.94-3.15 141.94-29.9 138.39-30.1 138.44-32.5Q146.74-32.9 151.49-32.9L151.49-32.9Q157.09-32.9 160.36-30.68 163.64-28.45 163.64-24.6L163.64-24.6Q163.64-21.85 161.84-19.8 160.04-17.75 156.49-17.35ZM153.44-29.95L146.59-29.2 146.59-18.4 149.09-18.4Q153.89-18.4 156.19-20.1 158.49-21.8 158.49-24.25L158.49-24.25Q158.49-26.25 157.06-27.93 155.64-29.6 153.44-29.95L153.44-29.95ZM146.59-3.45L151.59-3.05 152.69-3Q156.19-3 158.09-4.7 159.99-6.4 159.99-8.85L159.99-8.85Q159.99-11.6 157.69-13.6 155.39-15.6 151.89-15.7L151.89-15.7 146.59-15.7 146.59-3.45ZM189.98-3.75L190.73-1.55 185.68 0.75Q184.93 0.65 183.78-0.43 182.63-1.5 182.13-2.7L182.13-2.7 176.48 0.7 175.28 0.75Q172.28 0.75 170.46-0.95 168.63-2.65 168.63-5.2L168.63-5.2Q168.63-8.6 172.13-10.55L172.13-10.55 181.88-10.8 181.88-15.95Q181.88-18.25 181.33-19.43 180.78-20.6 179.43-21.3L179.43-21.3Q176.38-21.2 173.78-20.45L173.78-20.45 173.38-15.25 170.73-15.05Q169.43-17.4 169.28-21.05L169.28-21.05Q171.48-22.3 175.18-23.48 178.88-24.65 180.43-24.65L180.43-24.65Q181.83-24.65 183.33-23.63 184.83-22.6 185.58-21.48 186.33-20.35 186.38-17.4L186.38-17.4 186.38-4.3Q186.38-3.3 187.68-3.3L187.68-3.3Q188.43-3.3 189.98-3.75L189.98-3.75ZM174.63-2.9L174.63-2.9Q177.58-2.8 181.88-4.75L181.88-4.75 181.88-8.2 179.38-8.35Q173.33-8.35 173.33-5.2L173.33-5.2Q173.33-3.7 174.63-2.9ZM216.28-15.35L216.28-3.2Q218.78-2.9 219.88-2.4L219.88-2.4 219.58 0 209.23 0 208.98-1.65 211.83-2.75 211.83-14.8Q211.83-20.2 208.63-20.2L208.63-20.2Q205.83-20.2 201.03-16.6L201.03-16.6 201.03-3.15Q203.13-2.9 204.28-2.4L204.28-2.4 203.98 0 193.13 0 192.88-1.65 196.58-3 196.58-33.15 192.83-32.85 192.23-35.2Q195.58-36.65 199.03-36.75L199.03-36.75 201.03-35 201.03-19.3Q208.38-24.2 211.03-24.2L211.03-24.2Q212.48-23.95 213.96-22.73 215.43-21.5 215.86-20.2 216.28-18.9 216.28-15.35L216.28-15.35ZM241.43-23.15L241.43-23.15Q241.63-19.45 240.53-15.05L240.53-15.05 237.83-15.05 237.28-20.55Q233.23-18.3 230.43-14.6L230.43-14.6 230.43-3.3Q234.08-3.05 235.58-2.4L235.58-2.4 235.28 0 222.58 0 222.33-1.65 225.98-3 225.98-20.6 222.23-20.3 221.63-22.65Q224.98-24.1 228.43-24.2L228.43-24.2 230.43-22.45 230.43-17.9 235.68-23.5Q237.13-24.1 238.33-24.1L238.33-24.1Q239.93-24.1 241.43-23.15ZM260.28-12.85L247.43-13.1Q247.43-8.15 249.7-5.6 251.98-3.05 255.63-3.05L255.63-3.05Q258.33-3.05 262.03-4.7L262.03-4.7 262.78-2.55 254.98 0.75Q249.48 0.75 246.1-2.63 242.73-6 242.73-11.3L242.73-11.3Q242.73-16.7 246.05-20.55 249.38-24.4 254.18-24.4L254.18-24.4Q256.78-24.4 258.85-23.25 260.93-22.1 262.05-20.1 263.18-18.1 263.13-15.65L263.13-15.65 260.28-12.85ZM251.68-21.35L251.68-21.35Q248.83-19.85 247.83-15.75L247.83-15.75 258.78-16.25Q258.28-18.65 256.3-20.1 254.33-21.55 251.68-21.35ZM303.17-15.35L303.17-3.2Q305.72-2.85 306.67-2.4L306.67-2.4 306.37 0 296.12 0 295.87-1.65 298.72-2.75 298.72-14.8Q298.72-20.2 295.52-20.2L295.52-20.2Q292.97-20.2 288.22-16.8L288.22-16.8 288.22-3.2Q290.77-2.85 291.72-2.4L291.72-2.4 291.42 0 281.17 0 280.92-1.65 283.77-2.75 283.77-14.8Q283.77-20.2 280.57-20.2L280.57-20.2Q277.97-20.2 273.32-16.85L273.32-16.85 273.32-3.15Q275.42-2.9 276.57-2.4L276.57-2.4 276.27 0 265.57 0 265.32-1.65 268.87-2.95 268.87-20.6 265.12-20.3 264.52-22.65Q267.87-24.1 271.32-24.2L271.32-24.2 273.32-22.45 273.32-19.5Q280.37-24.2 282.97-24.2L282.97-24.2Q284.32-23.95 285.62-22.95 286.92-21.95 287.52-20.85L287.52-20.85 287.97-19.35Q295.52-24.2 297.92-24.2L297.92-24.2Q299.37-23.95 300.85-22.73 302.32-21.5 302.75-20.2 303.17-18.9 303.17-15.35L303.17-15.35ZM330.77-3.75L331.52-1.55 326.47 0.75Q325.72 0.65 324.57-0.43 323.42-1.5 322.92-2.7L322.92-2.7 317.27 0.7 316.07 0.75Q313.07 0.75 311.25-0.95 309.42-2.65 309.42-5.2L309.42-5.2Q309.42-8.6 312.92-10.55L312.92-10.55 322.67-10.8 322.67-15.95Q322.67-18.25 322.12-19.43 321.57-20.6 320.22-21.3L320.22-21.3Q317.17-21.2 314.57-20.45L314.57-20.45 314.17-15.25 311.52-15.05Q310.22-17.4 310.07-21.05L310.07-21.05Q312.27-22.3 315.97-23.48 319.67-24.65 321.22-24.65L321.22-24.65Q322.62-24.65 324.12-23.63 325.62-22.6 326.37-21.48 327.12-20.35 327.17-17.4L327.17-17.4 327.17-4.3Q327.17-3.3 328.47-3.3L328.47-3.3Q329.22-3.3 330.77-3.75L330.77-3.75ZM315.42-2.9L315.42-2.9Q318.37-2.8 322.67-4.75L322.67-4.75 322.67-8.2 320.17-8.35Q314.12-8.35 314.12-5.2L314.12-5.2Q314.12-3.7 315.42-2.9ZM356.27-15.35L356.27-3.2Q358.82-2.85 359.77-2.4L359.77-2.4 359.47 0 349.22 0 348.97-1.65 351.82-2.75 351.82-14.8Q351.82-20.2 348.62-20.2L348.62-20.2Q345.72-20.2 340.82-16.45L340.82-16.45 340.82-3.15Q342.92-2.9 344.07-2.4L344.07-2.4 343.77 0 333.07 0 332.82-1.65 336.37-2.95 336.37-20.6 332.62-20.3 332.02-22.65Q335.37-24.1 338.82-24.2L338.82-24.2 340.82-22.45 340.82-19.15Q348.32-24.2 351.02-24.2L351.02-24.2Q352.47-23.95 353.94-22.73 355.42-21.5 355.84-20.2 356.27-18.9 356.27-15.35L356.27-15.35ZM385.82-3.75L386.57-1.55 381.52 0.75Q380.72 0.65 379.54-0.48 378.37-1.6 377.92-2.9L377.92-2.9 372.47 0.75Q367.52 0.8 364.27-2.8 361.02-6.4 361.02-11.65L361.02-11.65Q361.02-17.1 364.69-20.8 368.37-24.5 373.62-24.5L373.62-24.5Q375.77-24.5 377.77-23.75L377.77-23.75 377.77-33.15 374.02-32.85 373.42-35.2Q376.77-36.65 380.22-36.75L380.22-36.75 382.22-34.95 382.22-4.3Q382.22-3.3 383.52-3.3L383.52-3.3Q384.27-3.3 385.82-3.75L385.82-3.75ZM365.72-12.2L365.72-12.2Q365.72-8.4 367.59-5.88 369.47-3.35 372.52-3.35L372.52-3.35Q374.87-3.35 377.77-5.1L377.77-5.1 377.77-19Q374.92-21.2 371.37-21.2L371.37-21.2 369.27-21Q365.72-17.85 365.72-12.2Z" opacity="1" transform="matrix(1,0,0,1,0,0)" fill="#fbfbf8" class="slogan-text-1" data-fill-palette-color="secondary" id="text-1"></path></svg></g></svg></g></svg></g></svg></g><g></g></svg></g><defs></defs></svg><rect width="395.52" height="85.87594987610692" fill="none" stroke="none" visibility="hidden"></rect></g></svg></g></svg>